<svg width="400" height="400" viewBox="0 0 400 400" fill="none" xmlns="http://www.w3.org/2000/svg">
  <defs>
    <linearGradient id="aboutGrad" x1="0%" y1="0%" x2="100%" y2="100%">
      <stop offset="0%" style="stop-color:#10b981;stop-opacity:1" />
      <stop offset="100%" style="stop-color:#059669;stop-opacity:1" />
    </linearGradient>
  </defs>
  
  <circle cx="200" cy="200" r="180" fill="url(#aboutGrad)" opacity="0.1"/>
  
  <!-- Building -->
  <rect x="120" y="150" width="160" height="180" rx="8" fill="#10b981" opacity="0.8"/>
  <rect x="140" y="170" width="30" height="40" rx="4" fill="white" opacity="0.8"/>
  <rect x="190" y="170" width="30" height="40" rx="4" fill="white" opacity="0.8"/>
  <rect x="240" y="170" width="30" height="40" rx="4" fill="white" opacity="0.8"/>
  
  <rect x="140" y="230" width="30" height="40" rx="4" fill="white" opacity="0.8"/>
  <rect x="190" y="230" width="30" height="40" rx="4" fill="white" opacity="0.8"/>
  <rect x="240" y="230" width="30" height="40" rx="4" fill="white" opacity="0.8"/>
  
  <rect x="165" y="290" width="70" height="40" rx="4" fill="white"/>
  
  <!-- Chef hat on top -->
  <ellipse cx="200" cy="120" rx="40" ry="15" fill="white"/>
  <rect x="160" y="100" width="80" height="30" rx="8" fill="white"/>
  
  <!-- Vegetables around -->
  <circle cx="80" cy="250" r="30" fill="#ef4444" opacity="0.7"/>
  <circle cx="320" cy="180" r="35" fill="#f59e0b" opacity="0.7"/>
  <path d="M60 150 L80 130 L100 150 L80 170 Z" fill="#22c55e" opacity="0.7"/>
</svg>
